<?xml version="1.0" encoding="utf-8"?>
<!-- Generator: Adobe Illustrator 18.0.0, SVG Export Plug-In . SVG Version: 6.00 Build 0)  -->
<!DOCTYPE svg PUBLIC "-//W3C//DTD SVG 1.1//EN" "http://www.w3.org/Graphics/SVG/1.1/DTD/svg11.dtd">
<svg version="1.1" xmlns="http://www.w3.org/2000/svg" xmlns:xlink="http://www.w3.org/1999/xlink" x="0px" y="0px"
	 viewBox="0 0 800 800" enable-background="new 0 0 800 800" xml:space="preserve">
<g id="background">
	
		<radialGradient id="SVGID_1_" cx="341.4443" cy="333.222" r="213.4823" gradientTransform="matrix(3.7037 0 0 3.3759 -877.8307 -1003.8293)" gradientUnits="userSpaceOnUse">
		<stop  offset="0.3065" style="stop-color:#FFFFFF"/>
		<stop  offset="0.5189" style="stop-color:#FCFCFC"/>
		<stop  offset="0.7052" style="stop-color:#F1F1F2"/>
		<stop  offset="0.8811" style="stop-color:#DFE0E1"/>
		<stop  offset="0.9946" style="stop-color:#CFD1D2"/>
	</radialGradient>
	<rect fill="url(#SVGID_1_)" width="800" height="800"/>
</g>
<g id="objects">
	<g>
		<g>
			<g>
				<g>
					<g enable-background="new    ">
						<g>
							<linearGradient id="SVGID_2_" gradientUnits="userSpaceOnUse" x1="-306.3889" y1="956.2765" x2="884.5496" y2="623.2944">
								<stop  offset="0" style="stop-color:#94CD8E"/>
								<stop  offset="1" style="stop-color:#00BCE9"/>
							</linearGradient>
							<polygon fill="url(#SVGID_2_)" points="481,907.9 311.2,611.8 139.1,907.9 							"/>
							<linearGradient id="SVGID_3_" gradientUnits="userSpaceOnUse" x1="-295.2153" y1="858.4681" x2="895.7226" y2="525.4861">
								<stop  offset="0" style="stop-color:#94CD8E"/>
								<stop  offset="1" style="stop-color:#00BCE9"/>
							</linearGradient>
							<polygon fill="url(#SVGID_3_)" points="116.1,800 60.2,702.6 3.6,800 							"/>
						</g>
					</g>
				</g>
				<g>
					<g enable-background="new    ">
						<g>
							<linearGradient id="SVGID_4_" gradientUnits="userSpaceOnUse" x1="505.0399" y1="617.1686" x2="657.149" y2="574.6395">
								<stop  offset="0" style="stop-color:#94CD8E"/>
								<stop  offset="1" style="stop-color:#00BCE9"/>
							</linearGradient>
							<polygon fill="url(#SVGID_4_)" points="581.1,595.9 581.1,595.9 581.1,595.9 							"/>
						</g>
					</g>
				</g>
				<g>
					<g enable-background="new    ">
						<polygon fill="#E8EAE8" points="0,800 159.9,800 67,638 0,753.3 						"/>
					</g>
				</g>
				<g>
					<g enable-background="new    ">
						<g>
							<linearGradient id="SVGID_5_" gradientUnits="userSpaceOnUse" x1="-279.8124" y1="913.5508" x2="911.1259" y2="580.5688">
								<stop  offset="0" style="stop-color:#94CD8E"/>
								<stop  offset="1" style="stop-color:#00BCE9"/>
							</linearGradient>
							<polygon fill="url(#SVGID_5_)" points="800,721.3 800,502 737,610.4 673.2,721.7 							"/>
						</g>
						<g>
							<polygon fill="#E8EAE8" points="800,499.2 672.8,499.3 737,610.4 800,720.3 							"/>
						</g>
					</g>
				</g>
				<g>
					<g enable-background="new    ">
						<g>
							<linearGradient id="SVGID_6_" gradientUnits="userSpaceOnUse" x1="-253.6131" y1="1007.2896" x2="937.331" y2="674.3059">
								<stop  offset="0" style="stop-color:#94CD8E"/>
								<stop  offset="1" style="stop-color:#00BCE9"/>
							</linearGradient>
							<polygon fill="url(#SVGID_6_)" points="621.7,800 584.7,735.5 547.2,800 							"/>
						</g>
						<g>
							<linearGradient id="SVGID_7_" gradientUnits="userSpaceOnUse" x1="865.4253" y1="908.2158" x2="17.9636" y2="137.2498">
								<stop  offset="0" style="stop-color:#94CD8E"/>
								<stop  offset="1" style="stop-color:#00BCE9"/>
							</linearGradient>
							<polygon fill="url(#SVGID_7_)" points="800,800 800,734.8 772.5,734.9 583.7,734.9 621.3,800 							"/>
						</g>
						<g>
							<polygon fill="#E8EAE8" points="800,800 800,782.5 772.5,734.9 679.1,572 584.7,734.4 395.9,734.4 433.8,800 							"/>
						</g>
					</g>
				</g>
			</g>
		</g>
		<g opacity="0.2">
			<g>
				<g>
					<g enable-background="new    ">
						<g>
							<polygon fill="#E8EAE8" points="547.5,-12.9 655.9,176 765.7,-12.9 							"/>
							<polygon fill="#E8EAE8" points="306.6,-12.9 414.6,175.3 524,-12.9 							"/>
							<polygon fill="#E8EAE8" points="800,-12.9 788.4,-12.9 800,7.3 							"/>
						</g>
					</g>
				</g>
				<g>
					<g enable-background="new    ">
						<g>
							<polygon fill="#E8EAE8" points="0,-12.9 0,38.7 52.1,128.9 162.9,322.1 274.8,129.6 385.6,322.7 497.5,130.2 721.3,130.2 
								638.6,-12.9 							"/>
						</g>
					</g>
				</g>
				<g>
					<g enable-background="new    ">
						<g>
							<linearGradient id="SVGID_8_" gradientUnits="userSpaceOnUse" x1="1131.2535" y1="603.0618" x2="283.7967" y2="-167.8997">
								<stop  offset="0" style="stop-color:#94CD8E"/>
								<stop  offset="1" style="stop-color:#00BCE9"/>
							</linearGradient>
							<polygon fill="url(#SVGID_8_)" points="800,67.5 800,-12.9 336.4,-12.9 287.2,72.8 491.9,72.2 392.4,245.6 592.3,245 
								797.2,245 694.7,67.5 							"/>
						</g>
					</g>
				</g>
			</g>
			<g>
				<g>
					<g enable-background="new    ">
						<g>
							<polygon fill="#E8EAE8" points="12.1,-12.9 55.7,62 98.7,-12.9 							"/>
							<polygon fill="#E8EAE8" points="219.9,-12.9 263.1,61.4 305.8,-12.9 							"/>
						</g>
					</g>
				</g>
				<g>
					<g enable-background="new    ">
						<g>
							<linearGradient id="SVGID_9_" gradientUnits="userSpaceOnUse" x1="1172.7314" y1="557.4665" x2="325.2733" y2="-213.4962">
								<stop  offset="0" style="stop-color:#94CD8E"/>
								<stop  offset="1" style="stop-color:#00BCE9"/>
							</linearGradient>
							<polygon fill="url(#SVGID_9_)" points="402.3,-12.9 382.4,21.5 574.8,21.5 767,22.1 746.9,-12.9 							"/>
						</g>
						<g>
							<polygon fill="#E8EAE8" points="20,-12.9 0,21.7 0,22.6 191.9,22.6 288.1,188.1 383.3,22 479.6,187.6 574.8,21.5 
								594.7,-12.9 							"/>
						</g>
					</g>
				</g>
				<g>
					<g enable-background="new    ">
						<g>
							<linearGradient id="SVGID_10_" gradientUnits="userSpaceOnUse" x1="938.5977" y1="814.8323" x2="91.1412" y2="43.871">
								<stop  offset="0" style="stop-color:#94CD8E"/>
								<stop  offset="1" style="stop-color:#00BCE9"/>
							</linearGradient>
							<polygon fill="url(#SVGID_10_)" points="11.7,-12.9 0,7.3 0,121.3 110.4,121.3 282.2,121.8 205,-12.9 							"/>
						</g>
					</g>
				</g>
			</g>
		</g>
		<g opacity="0.6">
			<g>
				<g enable-background="new    ">
					<g>
						<g>
							<polygon fill="#FFFFFF" points="34.3,0 141.2,183.9 246.6,0 247.2,0 141.4,184.5 141.2,184.9 33.7,0 							"/>
						</g>
						<g>
							<polygon fill="#FFFFFF" points="277.8,0 384.3,183.2 489.3,0 489.9,0 384.5,183.8 384.3,184.2 277.2,0 							"/>
						</g>
						<g>
							<polygon fill="#FFFFFF" points="4.5,0 0,7.8 0,6.8 3.9,0 							"/>
						</g>
					</g>
				</g>
			</g>
			<g>
				<g enable-background="new    ">
					<g>
						<g>
							<polygon fill="#FFFFFF" points="800,136.8 800,137.3 749.5,137.2 523.6,137.2 602.8,0 603.4,0 524.4,136.7 749.5,136.7 
															"/>
						</g>
					</g>
					<g>
						<g>
							<polygon fill="#FFFFFF" points="800,49.9 749.7,137 638.1,331.6 637.8,332 525.1,138 413.7,332.3 413.5,332.7 300.6,138.4 
								74.8,138.4 154.8,0 155.3,0 75.7,137.9 300.9,137.9 413.5,331.7 524.9,137.4 525.1,137 637.8,331 749.3,136.8 800,48.9 
															"/>
						</g>
					</g>
				</g>
			</g>
			<g>
				<g enable-background="new    ">
					<g>
						<g>
							<polygon fill="#FFFFFF" points="0,252.3 0,251.2 101.6,75.3 0,75.3 0,74.8 102.5,74.8 							"/>
							<polygon fill="#FFFFFF" points="406.2,254.2 306.2,79.9 306,79.5 512.2,80.1 466.3,0 466.8,0 512.8,80.2 513,80.6 306.9,80 
								406.9,254.3 407.1,254.7 205.3,254.1 0,254.1 0,253.6 205.3,253.6 							"/>
						</g>
					</g>
				</g>
			</g>
			<g>
				<g enable-background="new    ">
					<g>
						<path fill="#FFFFFF" d="M443.3,262.3l-46.4,80.9l-0.2,0.4l-47.1-81.1l-46.6-81.2l-0.2-0.4l94.1,0.3l93.3-0.3l0.4,0
							L443.3,262.3z M442.8,262l46.8-80.6l-92.9,0.3l-93.2-0.3l46.4,80.9l46.7,80.3L442.8,262z"/>
					</g>
				</g>
			</g>
			<g>
				<g enable-background="new    ">
					<g>
						<g>
							<polygon fill="#FFFFFF" points="706.4,0 745.9,69 786,0 786.6,0 746.1,69.6 745.9,70 705.8,0 							"/>
						</g>
						<g>
							<polygon fill="#FFFFFF" points="497.7,0 536.9,68.4 576.6,0 577.2,0 537.1,69 536.9,69.4 497.1,0 							"/>
						</g>
					</g>
				</g>
			</g>
			<g>
				<g enable-background="new    ">
					<g>
						<g>
							<polygon fill="#FFFFFF" points="46.3,0 29.7,29 222.8,28.4 416.3,28.4 399.9,0 400.5,0 416.9,28.5 417.2,28.9 222.8,28.9 
								29.2,29.5 28.8,29.5 45.7,0 							"/>
						</g>
					</g>
					<g>
						<g>
							<polygon fill="#FFFFFF" points="800,30 608.8,30 512,196.7 511.8,197.1 415.8,29.7 319.1,196.1 318.8,196.5 222.6,28.8 
								206,0 206.6,0 223.1,28.5 318.8,195.5 415.6,29.1 415.8,28.7 511.8,196.1 608.5,29.6 608.5,29.5 800,29.5 							"/>
							<polygon fill="#FFFFFF" points="800,25.8 785.1,0 785.7,0 800,24.8 							"/>
						</g>
					</g>
				</g>
			</g>
			<g>
				<g enable-background="new    ">
					<g>
						<g>
							<polygon fill="#FFFFFF" points="800,129 800,129.5 690.8,129.5 517.6,129.9 517.2,130 591.8,0 592.3,0 518.1,129.4 
								690.8,129 							"/>
							<polygon fill="#FFFFFF" points="800,11.4 793.4,0 794,0 800,10.4 							"/>
						</g>
					</g>
				</g>
			</g>
		</g>
		<g opacity="0.3">
			<g>
				<g enable-background="new    ">
					<g>
						<g>
							<polygon fill="#FFFFFF" points="765.7,800 658.8,616.1 553.4,800 552.8,800 658.6,615.5 658.8,615.1 766.3,800 							"/>
						</g>
						<g>
							<polygon fill="#FFFFFF" points="522.2,800 415.7,616.8 310.7,800 310.1,800 415.5,616.2 415.7,615.8 522.8,800 							"/>
						</g>
						<g>
							<polygon fill="#FFFFFF" points="795.5,800 800,792.2 800,793.2 796.1,800 							"/>
						</g>
					</g>
				</g>
			</g>
			<g>
				<g enable-background="new    ">
					<g>
						<g>
							<polygon fill="#FFFFFF" points="0,663.2 0,662.7 50.5,662.8 276.4,662.8 197.2,800 196.6,800 275.6,663.3 50.5,663.3 							
								"/>
						</g>
					</g>
					<g>
						<g>
							<polygon fill="#FFFFFF" points="0,750.1 50.3,663 161.9,468.4 162.2,468 274.9,662 386.3,467.7 386.5,467.3 499.4,661.6 
								725.2,661.6 645.2,800 644.7,800 724.3,662.1 499.1,662.1 386.5,468.3 275.1,662.6 274.9,663 162.2,469 50.7,663.2 0,751.1 
															"/>
						</g>
					</g>
				</g>
			</g>
			<g>
				<g enable-background="new    ">
					<g>
						<g>
							<polygon fill="#FFFFFF" points="800,547.7 800,548.8 698.4,724.7 800,724.7 800,725.2 697.5,725.2 							"/>
							<polygon fill="#FFFFFF" points="393.8,545.8 493.8,720.1 494,720.5 287.8,719.9 333.8,800 333.2,800 287.2,719.8 287,719.4 
								493.1,720 393.1,545.7 392.9,545.3 594.7,545.9 800,545.9 800,546.4 594.7,546.4 							"/>
						</g>
					</g>
				</g>
			</g>
			<g>
				<g enable-background="new    ">
					<g>
						<g>
							<polygon fill="#FFFFFF" points="93.6,800 54.1,731 14,800 13.4,800 53.9,730.4 54.1,730 94.2,800 							"/>
						</g>
						<g>
							<polygon fill="#FFFFFF" points="302.3,800 263.1,731.6 223.4,800 222.8,800 262.9,731 263.1,730.6 302.9,800 							"/>
						</g>
					</g>
				</g>
			</g>
			<g>
				<g enable-background="new    ">
					<g>
						<g>
							<polygon fill="#FFFFFF" points="753.7,800 770.3,771 577.2,771.6 383.7,771.6 400.1,800 399.5,800 383.1,771.5 382.8,771.1 
								577.2,771.1 770.8,770.5 771.2,770.5 754.3,800 							"/>
						</g>
					</g>
					<g>
						<g>
							<polygon fill="#FFFFFF" points="0,770 191.2,770 288,603.3 288.2,602.9 384.2,770.3 480.9,603.9 481.2,603.5 577.4,771.2 
								594,800 593.4,800 576.9,771.5 481.2,604.5 384.5,770.9 384.2,771.3 288.2,603.9 191.5,770.4 191.5,770.5 0,770.5 							"/>
							<polygon fill="#FFFFFF" points="0,774.2 14.9,800 14.3,800 0,775.2 							"/>
						</g>
					</g>
				</g>
			</g>
			<g>
				<g enable-background="new    ">
					<g>
						<g>
							<polygon fill="#FFFFFF" points="0,671 0,670.5 109.2,670.5 282.4,670.1 282.8,670 208.3,800 207.7,800 281.9,670.6 
								109.2,671 							"/>
							<polygon fill="#FFFFFF" points="0,788.6 6.6,800 6,800 0,789.6 							"/>
						</g>
					</g>
				</g>
			</g>
		</g>
		<g display="none">
			<g display="inline">
				<path fill="#FFFFFF" d="M288.5,778.7v-0.3c-0.3,0.4-0.7,0.7-1,1c-0.3,0.3-0.7,0.4-1.1,0.6c-0.4,0.1-0.8,0.2-1.3,0.2
					c-0.6,0-1.2-0.1-1.7-0.4c-0.5-0.3-1-0.6-1.4-1.1c-0.4-0.5-0.7-1.1-0.9-1.7c-0.2-0.7-0.3-1.4-0.3-2.1c0-1.6,0.4-2.9,1.2-3.8
					c0.8-0.9,1.8-1.4,3.1-1.4c0.7,0,1.4,0.1,1.9,0.4c0.5,0.3,1,0.7,1.5,1.2v-3.8c0-0.5,0.1-0.9,0.3-1.2c0.2-0.3,0.5-0.4,0.9-0.4
					c0.4,0,0.7,0.1,0.9,0.4c0.2,0.2,0.3,0.6,0.3,1.1v11.4c0,0.5-0.1,0.9-0.3,1.1c-0.2,0.2-0.5,0.4-0.9,0.4c-0.4,0-0.6-0.1-0.9-0.4
					C288.6,779.5,288.5,779.1,288.5,778.7z M283.4,774.9c0,0.7,0.1,1.3,0.3,1.8c0.2,0.5,0.5,0.9,0.9,1.1c0.4,0.3,0.8,0.4,1.2,0.4
					c0.5,0,0.9-0.1,1.3-0.4c0.4-0.2,0.7-0.6,0.9-1.1c0.2-0.5,0.3-1.1,0.3-1.8c0-0.7-0.1-1.3-0.3-1.8c-0.2-0.5-0.5-0.9-0.9-1.1
					c-0.4-0.3-0.8-0.4-1.3-0.4c-0.5,0-0.9,0.1-1.3,0.4c-0.4,0.3-0.7,0.7-0.9,1.2C283.5,773.6,283.4,774.2,283.4,774.9z"/>
				<path fill="#FFFFFF" d="M299.9,775.5h-5.1c0,0.6,0.1,1.1,0.4,1.6c0.2,0.4,0.5,0.8,0.9,1c0.4,0.2,0.8,0.3,1.3,0.3
					c0.3,0,0.6,0,0.9-0.1c0.3-0.1,0.5-0.2,0.7-0.3c0.2-0.2,0.5-0.3,0.7-0.5c0.2-0.2,0.5-0.4,0.8-0.7c0.1-0.1,0.3-0.2,0.6-0.2
					c0.3,0,0.5,0.1,0.6,0.2c0.2,0.1,0.2,0.3,0.2,0.6c0,0.2-0.1,0.5-0.3,0.8c-0.2,0.3-0.5,0.6-0.8,0.9c-0.4,0.3-0.8,0.5-1.4,0.7
					c-0.6,0.2-1.2,0.3-1.9,0.3c-1.7,0-3-0.5-3.9-1.4c-0.9-0.9-1.4-2.2-1.4-3.9c0-0.8,0.1-1.5,0.3-2.1c0.2-0.7,0.6-1.2,1-1.7
					c0.4-0.5,1-0.8,1.6-1.1c0.6-0.2,1.4-0.4,2.1-0.4c1,0,1.9,0.2,2.6,0.6c0.7,0.4,1.3,1,1.6,1.7c0.4,0.7,0.5,1.4,0.5,2.1
					c0,0.7-0.2,1.1-0.6,1.3C301.1,775.4,300.6,775.5,299.9,775.5z M294.9,774h4.7c-0.1-0.9-0.3-1.5-0.7-2c-0.4-0.4-1-0.7-1.6-0.7
					c-0.7,0-1.2,0.2-1.6,0.7C295.2,772.5,295,773.2,294.9,774z"/>
				<path fill="#FFFFFF" d="M311.7,776.8c0,0.7-0.2,1.3-0.5,1.8c-0.3,0.5-0.9,0.9-1.5,1.2c-0.7,0.3-1.5,0.4-2.5,0.4
					c-0.9,0-1.7-0.1-2.4-0.4c-0.7-0.3-1.2-0.6-1.5-1.1c-0.3-0.4-0.5-0.9-0.5-1.3c0-0.3,0.1-0.5,0.3-0.7c0.2-0.2,0.5-0.3,0.8-0.3
					c0.3,0,0.5,0.1,0.6,0.2c0.1,0.1,0.3,0.3,0.4,0.6c0.3,0.5,0.6,0.8,1,1c0.4,0.2,0.9,0.3,1.5,0.3c0.5,0,0.9-0.1,1.3-0.3
					c0.3-0.2,0.5-0.5,0.5-0.8c0-0.5-0.2-0.8-0.5-1c-0.3-0.2-0.9-0.4-1.7-0.6c-0.9-0.2-1.6-0.5-2.2-0.7c-0.6-0.2-1-0.6-1.3-1
					c-0.3-0.4-0.5-0.9-0.5-1.5c0-0.5,0.2-1,0.5-1.5c0.3-0.5,0.8-0.8,1.4-1.1c0.6-0.3,1.3-0.4,2.2-0.4c0.7,0,1.3,0.1,1.8,0.2
					c0.5,0.1,1,0.3,1.3,0.6c0.4,0.2,0.6,0.5,0.8,0.8c0.2,0.3,0.3,0.6,0.3,0.8c0,0.3-0.1,0.5-0.3,0.7c-0.2,0.2-0.5,0.3-0.9,0.3
					c-0.3,0-0.5-0.1-0.7-0.2c-0.2-0.2-0.4-0.4-0.6-0.7c-0.2-0.3-0.4-0.5-0.7-0.6c-0.3-0.2-0.6-0.2-1.1-0.2c-0.5,0-0.9,0.1-1.2,0.3
					c-0.3,0.2-0.5,0.4-0.5,0.7c0,0.3,0.1,0.5,0.3,0.7c0.2,0.2,0.5,0.3,0.9,0.4c0.4,0.1,0.9,0.3,1.6,0.4c0.8,0.2,1.5,0.4,2,0.7
					c0.5,0.3,0.9,0.6,1.2,1C311.6,775.9,311.7,776.3,311.7,776.8z"/>
				<path fill="#FFFFFF" d="M314.4,768.4c-0.4,0-0.7-0.1-0.9-0.3c-0.3-0.2-0.4-0.5-0.4-0.9c0-0.4,0.1-0.7,0.4-0.9
					c0.3-0.2,0.6-0.4,0.9-0.4c0.3,0,0.6,0.1,0.9,0.3c0.3,0.2,0.4,0.5,0.4,0.9c0,0.4-0.1,0.7-0.4,0.9
					C315,768.3,314.7,768.4,314.4,768.4z M315.7,771.1v7.5c0,0.5-0.1,0.9-0.4,1.2c-0.2,0.3-0.6,0.4-0.9,0.4c-0.4,0-0.7-0.1-0.9-0.4
					c-0.2-0.3-0.4-0.7-0.4-1.2v-7.4c0-0.5,0.1-0.9,0.4-1.2c0.2-0.3,0.5-0.4,0.9-0.4c0.4,0,0.7,0.1,0.9,0.4
					C315.6,770.3,315.7,770.6,315.7,771.1z"/>
				<path fill="#FFFFFF" d="M327,771.5v7.5c0,0.9-0.1,1.6-0.3,2.2c-0.2,0.6-0.5,1.1-0.9,1.5c-0.4,0.4-0.9,0.7-1.6,0.9
					c-0.7,0.2-1.5,0.3-2.4,0.3c-0.9,0-1.7-0.1-2.4-0.4c-0.7-0.3-1.2-0.6-1.6-1c-0.4-0.4-0.6-0.8-0.6-1.2c0-0.3,0.1-0.6,0.3-0.8
					c0.2-0.2,0.5-0.3,0.8-0.3c0.4,0,0.7,0.2,1,0.5c0.1,0.2,0.3,0.3,0.4,0.5c0.1,0.2,0.3,0.3,0.5,0.4c0.2,0.1,0.4,0.2,0.7,0.3
					c0.3,0.1,0.5,0.1,0.9,0.1c0.7,0,1.2-0.1,1.6-0.3c0.4-0.2,0.6-0.4,0.8-0.8c0.1-0.3,0.2-0.7,0.3-1.1c0-0.4,0-1,0.1-1.8
					c-0.4,0.6-0.9,1-1.4,1.3c-0.5,0.3-1.1,0.4-1.9,0.4c-0.9,0-1.6-0.2-2.3-0.7c-0.7-0.4-1.1-1.1-1.5-1.9c-0.3-0.8-0.5-1.7-0.5-2.8
					c0-0.8,0.1-1.5,0.3-2.1c0.2-0.6,0.5-1.2,0.9-1.6c0.4-0.4,0.8-0.8,1.4-1c0.5-0.2,1.1-0.3,1.7-0.3c0.7,0,1.4,0.1,1.9,0.4
					c0.5,0.3,1,0.7,1.5,1.3V771c0-0.4,0.1-0.8,0.3-1c0.2-0.2,0.5-0.4,0.9-0.4c0.5,0,0.8,0.2,1,0.5C327,770.4,327,770.9,327,771.5z
					 M319.5,774.8c0,1,0.2,1.8,0.7,2.4c0.5,0.5,1,0.8,1.8,0.8c0.4,0,0.8-0.1,1.2-0.3s0.7-0.6,0.9-1c0.2-0.5,0.4-1,0.4-1.7
					c0-1.1-0.2-1.9-0.7-2.5c-0.5-0.6-1.1-0.9-1.8-0.9c-0.7,0-1.3,0.3-1.8,0.8C319.7,773,319.5,773.8,319.5,774.8z"/>
				<path fill="#FFFFFF" d="M331.2,771v0.3c0.5-0.6,1-1,1.5-1.3c0.5-0.3,1.2-0.4,1.9-0.4c0.7,0,1.3,0.1,1.8,0.4
					c0.5,0.3,0.9,0.7,1.2,1.3c0.2,0.3,0.3,0.7,0.3,1c0.1,0.4,0.1,0.8,0.1,1.4v4.8c0,0.5-0.1,0.9-0.4,1.2c-0.2,0.3-0.5,0.4-0.9,0.4
					s-0.7-0.1-0.9-0.4c-0.2-0.3-0.4-0.7-0.4-1.2v-4.3c0-0.9-0.1-1.5-0.4-2c-0.2-0.5-0.7-0.7-1.4-0.7c-0.5,0-0.9,0.1-1.3,0.4
					c-0.4,0.3-0.7,0.7-0.8,1.1c-0.1,0.4-0.2,1.1-0.2,2.2v3.2c0,0.5-0.1,0.9-0.4,1.2c-0.2,0.3-0.6,0.4-0.9,0.4
					c-0.4,0-0.7-0.1-0.9-0.4c-0.2-0.3-0.4-0.7-0.4-1.2v-7.5c0-0.5,0.1-0.9,0.3-1.1c0.2-0.2,0.5-0.4,0.9-0.4c0.2,0,0.4,0.1,0.6,0.2
					c0.2,0.1,0.3,0.3,0.4,0.5C331.1,770.5,331.2,770.7,331.2,771z"/>
				<path fill="#FFFFFF" d="M346.9,775.5h-5.1c0,0.6,0.1,1.1,0.4,1.6c0.2,0.4,0.5,0.8,0.9,1c0.4,0.2,0.8,0.3,1.3,0.3
					c0.3,0,0.6,0,0.9-0.1c0.3-0.1,0.5-0.2,0.7-0.3c0.2-0.2,0.5-0.3,0.7-0.5c0.2-0.2,0.5-0.4,0.8-0.7c0.1-0.1,0.3-0.2,0.6-0.2
					c0.3,0,0.5,0.1,0.6,0.2c0.2,0.1,0.2,0.3,0.2,0.6c0,0.2-0.1,0.5-0.3,0.8c-0.2,0.3-0.5,0.6-0.8,0.9c-0.4,0.3-0.8,0.5-1.4,0.7
					c-0.6,0.2-1.2,0.3-1.9,0.3c-1.7,0-3-0.5-3.9-1.4c-0.9-0.9-1.4-2.2-1.4-3.9c0-0.8,0.1-1.5,0.3-2.1c0.2-0.7,0.6-1.2,1-1.7
					c0.4-0.5,1-0.8,1.6-1.1c0.6-0.2,1.3-0.4,2.1-0.4c1,0,1.9,0.2,2.6,0.6c0.7,0.4,1.3,1,1.6,1.7c0.4,0.7,0.5,1.4,0.5,2.1
					c0,0.7-0.2,1.1-0.6,1.3C348.1,775.4,347.6,775.5,346.9,775.5z M341.9,774h4.7c-0.1-0.9-0.3-1.5-0.7-2c-0.4-0.4-1-0.7-1.6-0.7
					c-0.6,0-1.2,0.2-1.6,0.7C342.2,772.5,341.9,773.2,341.9,774z"/>
				<path fill="#FFFFFF" d="M357.5,778.7v-0.3c-0.4,0.4-0.7,0.7-1,1c-0.3,0.3-0.7,0.4-1.1,0.6c-0.4,0.1-0.8,0.2-1.3,0.2
					c-0.6,0-1.2-0.1-1.7-0.4c-0.5-0.3-1-0.6-1.4-1.1c-0.4-0.5-0.7-1.1-0.9-1.7c-0.2-0.7-0.3-1.4-0.3-2.1c0-1.6,0.4-2.9,1.2-3.8
					c0.8-0.9,1.8-1.4,3.1-1.4c0.8,0,1.4,0.1,1.9,0.4c0.5,0.3,1,0.7,1.5,1.2v-3.8c0-0.5,0.1-0.9,0.3-1.2c0.2-0.3,0.5-0.4,0.9-0.4
					c0.4,0,0.7,0.1,0.9,0.4c0.2,0.2,0.3,0.6,0.3,1.1v11.4c0,0.5-0.1,0.9-0.3,1.1c-0.2,0.2-0.5,0.4-0.9,0.4c-0.4,0-0.6-0.1-0.9-0.4
					C357.6,779.5,357.5,779.1,357.5,778.7z M352.4,774.9c0,0.7,0.1,1.3,0.3,1.8c0.2,0.5,0.5,0.9,0.9,1.1c0.4,0.3,0.8,0.4,1.2,0.4
					c0.5,0,0.9-0.1,1.3-0.4c0.4-0.2,0.7-0.6,0.9-1.1s0.3-1.1,0.3-1.8c0-0.7-0.1-1.3-0.3-1.8c-0.2-0.5-0.5-0.9-0.9-1.1
					c-0.4-0.3-0.8-0.4-1.3-0.4c-0.5,0-0.9,0.1-1.3,0.4c-0.4,0.3-0.7,0.7-0.9,1.2C352.5,773.6,352.4,774.2,352.4,774.9z"/>
				<path fill="#FFFFFF" d="M368.1,767.2v4c0.5-0.5,1-0.9,1.5-1.2c0.5-0.3,1.1-0.4,1.9-0.4c0.9,0,1.6,0.2,2.3,0.6
					c0.7,0.4,1.2,1,1.5,1.8c0.4,0.8,0.5,1.7,0.5,2.8c0,0.8-0.1,1.5-0.3,2.2c-0.2,0.7-0.5,1.2-0.9,1.7c-0.4,0.5-0.8,0.9-1.4,1.1
					c-0.5,0.3-1.1,0.4-1.8,0.4c-0.4,0-0.8,0-1.1-0.1c-0.4-0.1-0.7-0.2-0.9-0.4c-0.3-0.2-0.5-0.3-0.6-0.5c-0.2-0.2-0.4-0.4-0.7-0.7
					v0.3c0,0.5-0.1,0.9-0.4,1.1c-0.2,0.2-0.5,0.4-0.9,0.4c-0.4,0-0.7-0.1-0.9-0.4c-0.2-0.3-0.3-0.6-0.3-1.1v-11.3
					c0-0.5,0.1-0.9,0.3-1.2c0.2-0.3,0.5-0.4,0.9-0.4c0.4,0,0.7,0.1,0.9,0.4C368,766.4,368.1,766.8,368.1,767.2z M368.2,774.9
					c0,1,0.2,1.8,0.7,2.4c0.5,0.6,1.1,0.8,1.9,0.8c0.7,0,1.2-0.3,1.7-0.8c0.5-0.6,0.7-1.4,0.7-2.4c0-0.7-0.1-1.3-0.3-1.8
					c-0.2-0.5-0.5-0.9-0.8-1.2c-0.4-0.3-0.8-0.4-1.3-0.4c-0.5,0-0.9,0.1-1.3,0.4c-0.4,0.3-0.7,0.7-0.9,1.2
					C368.3,773.6,368.2,774.2,368.2,774.9z"/>
				<path fill="#FFFFFF" d="M379.1,780.5l0.2-0.6l-3.2-8c-0.2-0.5-0.3-0.8-0.3-1c0-0.2,0.1-0.4,0.2-0.6c0.1-0.2,0.3-0.3,0.5-0.5
					c0.2-0.1,0.4-0.2,0.6-0.2c0.4,0,0.7,0.1,0.8,0.4c0.2,0.2,0.4,0.6,0.5,1l2.2,6.4l2.1-5.9c0.2-0.5,0.3-0.9,0.4-1.1
					c0.1-0.3,0.3-0.5,0.4-0.5c0.1-0.1,0.4-0.1,0.6-0.1c0.2,0,0.4,0.1,0.6,0.2c0.2,0.1,0.3,0.2,0.4,0.4c0.1,0.2,0.2,0.4,0.2,0.6
					c0,0.1-0.1,0.3-0.1,0.5c-0.1,0.2-0.1,0.4-0.2,0.7l-3.4,8.8c-0.3,0.8-0.6,1.4-0.9,1.8c-0.3,0.4-0.7,0.8-1.1,1
					c-0.5,0.2-1.1,0.4-1.9,0.4c-0.8,0-1.3-0.1-1.7-0.2c-0.4-0.2-0.6-0.5-0.6-0.9c0-0.3,0.1-0.5,0.3-0.7c0.2-0.2,0.4-0.2,0.8-0.2
					c0.1,0,0.3,0,0.4,0.1c0.2,0,0.3,0.1,0.4,0.1c0.3,0,0.5,0,0.7-0.1c0.2-0.1,0.3-0.2,0.5-0.5C378.8,781.2,379,780.9,379.1,780.5z"
					/>
			</g>
			<g display="inline">
				<path fill="#FFFFFF" d="M416.7,769.8h0.6v-0.8c0-0.8,0.1-1.5,0.3-1.9c0.2-0.5,0.5-0.8,1-1c0.5-0.2,1.2-0.3,2-0.3
					c1.5,0,2.3,0.4,2.3,1.1c0,0.2-0.1,0.4-0.2,0.6c-0.2,0.2-0.3,0.3-0.6,0.3c-0.1,0-0.3,0-0.5-0.1c-0.2,0-0.5-0.1-0.6-0.1
					c-0.5,0-0.8,0.1-0.9,0.4c-0.1,0.3-0.2,0.7-0.2,1.2v0.6h0.6c1,0,1.5,0.3,1.5,0.9c0,0.4-0.1,0.7-0.4,0.8c-0.3,0.1-0.6,0.2-1.1,0.2
					h-0.6v6.9c0,0.5-0.1,0.9-0.4,1.2c-0.2,0.3-0.6,0.4-0.9,0.4c-0.4,0-0.7-0.1-0.9-0.4c-0.2-0.3-0.4-0.7-0.4-1.2v-6.9h-0.7
					c-0.4,0-0.7-0.1-0.9-0.3c-0.2-0.2-0.3-0.4-0.3-0.7C415.4,770.1,415.8,769.8,416.7,769.8"/>
				<path fill="#FFFFFF" d="M425.2,776.4v2.2c0,0.5-0.1,0.9-0.4,1.2c-0.2,0.3-0.6,0.4-0.9,0.4c-0.4,0-0.7-0.1-0.9-0.4
					c-0.2-0.3-0.4-0.7-0.4-1.2v-7.2c0-1.2,0.4-1.8,1.3-1.8c0.4,0,0.7,0.1,0.9,0.4c0.2,0.3,0.3,0.7,0.3,1.2c0.3-0.5,0.6-0.9,0.9-1.2
					c0.3-0.3,0.8-0.4,1.3-0.4c0.5,0,1.1,0.1,1.6,0.4c0.5,0.3,0.8,0.6,0.8,1.1c0,0.3-0.1,0.6-0.3,0.8c-0.2,0.2-0.5,0.3-0.7,0.3
					c-0.1,0-0.3-0.1-0.7-0.2c-0.4-0.1-0.7-0.2-1-0.2c-0.4,0-0.7,0.1-0.9,0.3c-0.2,0.2-0.4,0.5-0.6,0.9c-0.1,0.4-0.2,0.9-0.3,1.4
					C425.2,775,425.2,775.6,425.2,776.4"/>
				<path fill="#FFFFFF" d="M437.1,775.5H432c0,0.6,0.1,1.1,0.4,1.6c0.2,0.4,0.5,0.8,0.9,1c0.4,0.2,0.8,0.3,1.3,0.3
					c0.3,0,0.6,0,0.8-0.1c0.3-0.1,0.5-0.2,0.7-0.3c0.2-0.2,0.5-0.3,0.7-0.5c0.2-0.2,0.5-0.4,0.8-0.7c0.1-0.1,0.3-0.2,0.6-0.2
					c0.3,0,0.5,0.1,0.7,0.2c0.2,0.1,0.2,0.3,0.2,0.6c0,0.2-0.1,0.5-0.3,0.8c-0.2,0.3-0.5,0.6-0.8,0.9c-0.4,0.3-0.8,0.5-1.4,0.7
					c-0.6,0.2-1.2,0.3-1.9,0.3c-1.7,0-3-0.5-3.9-1.4c-0.9-0.9-1.4-2.2-1.4-3.9c0-0.8,0.1-1.5,0.3-2.1c0.2-0.7,0.6-1.2,1-1.7
					c0.4-0.5,1-0.8,1.6-1.1c0.6-0.2,1.3-0.4,2.1-0.4c1,0,1.9,0.2,2.6,0.7c0.7,0.4,1.3,1,1.6,1.6c0.4,0.7,0.5,1.4,0.5,2.1
					c0,0.7-0.2,1.1-0.6,1.3C438.3,775.4,437.8,775.5,437.1,775.5 M432,774h4.7c-0.1-0.9-0.3-1.5-0.7-2c-0.4-0.4-1-0.7-1.6-0.7
					c-0.6,0-1.2,0.2-1.6,0.7C432.4,772.5,432.1,773.2,432,774"/>
				<path fill="#FFFFFF" d="M447.9,775.5h-5.1c0,0.6,0.1,1.1,0.4,1.6c0.2,0.4,0.5,0.8,0.9,1c0.4,0.2,0.8,0.3,1.3,0.3
					c0.3,0,0.6,0,0.8-0.1c0.3-0.1,0.5-0.2,0.7-0.3c0.2-0.2,0.5-0.3,0.7-0.5c0.2-0.2,0.5-0.4,0.8-0.7c0.1-0.1,0.3-0.2,0.6-0.2
					c0.3,0,0.5,0.1,0.7,0.2c0.2,0.1,0.2,0.3,0.2,0.6c0,0.2-0.1,0.5-0.3,0.8c-0.2,0.3-0.5,0.6-0.8,0.9c-0.4,0.3-0.8,0.5-1.4,0.7
					c-0.6,0.2-1.2,0.3-1.9,0.3c-1.7,0-3-0.5-3.9-1.4c-0.9-0.9-1.4-2.2-1.4-3.9c0-0.8,0.1-1.5,0.3-2.1c0.2-0.7,0.6-1.2,1-1.7
					c0.4-0.5,1-0.8,1.6-1.1c0.6-0.2,1.3-0.4,2.1-0.4c1,0,1.9,0.2,2.6,0.7c0.7,0.4,1.3,1,1.6,1.6c0.4,0.7,0.5,1.4,0.5,2.1
					c0,0.7-0.2,1.1-0.6,1.3C449.1,775.4,448.6,775.5,447.9,775.5 M442.8,774h4.7c-0.1-0.9-0.3-1.5-0.7-2c-0.4-0.4-1-0.7-1.6-0.7
					c-0.6,0-1.2,0.2-1.6,0.7C443.2,772.5,442.9,773.2,442.8,774"/>
				<path fill="#FFFFFF" d="M453.6,771.1v0.3c0.5-0.6,1-1,1.5-1.3c0.5-0.3,1.1-0.4,1.8-0.4c0.8,0,1.5,0.2,2.2,0.6
					c0.7,0.4,1.2,1,1.6,1.8c0.4,0.8,0.6,1.7,0.6,2.8c0,0.8-0.1,1.5-0.3,2.2c-0.2,0.7-0.5,1.2-0.9,1.7c-0.4,0.4-0.9,0.8-1.4,1
					c-0.5,0.2-1.1,0.4-1.7,0.4c-0.7,0-1.4-0.2-1.9-0.4c-0.5-0.3-1-0.7-1.4-1.3v3.9c0,1.1-0.4,1.7-1.2,1.7c-0.5,0-0.8-0.1-1-0.4
					c-0.2-0.3-0.2-0.7-0.2-1.3v-11.2c0-0.5,0.1-0.9,0.3-1.1c0.2-0.2,0.5-0.4,0.9-0.4c0.4,0,0.7,0.1,0.9,0.4
					C453.5,770.2,453.6,770.6,453.6,771.1 M458.7,774.8c0-0.7-0.1-1.3-0.3-1.8c-0.2-0.5-0.5-0.9-0.9-1.1c-0.4-0.3-0.8-0.4-1.2-0.4
					c-0.7,0-1.3,0.3-1.8,0.8c-0.5,0.6-0.7,1.4-0.7,2.5c0,1,0.2,1.8,0.7,2.4c0.5,0.6,1.1,0.9,1.8,0.9c0.4,0,0.8-0.1,1.2-0.4
					c0.4-0.3,0.7-0.6,0.9-1.1C458.6,776.1,458.7,775.5,458.7,774.8"/>
				<path fill="#FFFFFF" d="M463.9,768.4c-0.4,0-0.7-0.1-0.9-0.3c-0.3-0.2-0.4-0.5-0.4-0.9c0-0.4,0.1-0.7,0.4-0.9
					c0.3-0.2,0.6-0.4,0.9-0.4c0.3,0,0.6,0.1,0.9,0.3c0.3,0.2,0.4,0.5,0.4,0.9c0,0.4-0.1,0.7-0.4,0.9
					C464.5,768.3,464.2,768.4,463.9,768.4 M465.2,771.1v7.5c0,0.5-0.1,0.9-0.4,1.2c-0.2,0.3-0.6,0.4-0.9,0.4c-0.4,0-0.7-0.1-0.9-0.4
					c-0.2-0.3-0.4-0.7-0.4-1.2v-7.4c0-0.5,0.1-0.9,0.4-1.2c0.2-0.3,0.5-0.4,0.9-0.4c0.4,0,0.7,0.1,0.9,0.4
					C465,770.3,465.2,770.6,465.2,771.1"/>
				<path fill="#FFFFFF" d="M473.5,779l-2.3-3.8l-1.4,1.3v2.1c0,0.5-0.1,0.9-0.4,1.2c-0.3,0.3-0.6,0.4-0.9,0.4
					c-0.4,0-0.7-0.1-0.9-0.4c-0.2-0.3-0.3-0.7-0.3-1.2v-11.1c0-0.6,0.1-1,0.3-1.3c0.2-0.3,0.5-0.4,1-0.4c0.4,0,0.7,0.1,0.9,0.4
					c0.2,0.3,0.4,0.7,0.4,1.2v6.3l2.9-3.1c0.4-0.4,0.6-0.6,0.8-0.8c0.2-0.1,0.4-0.2,0.7-0.2c0.3,0,0.6,0.1,0.8,0.3
					c0.2,0.2,0.3,0.5,0.3,0.8c0,0.4-0.4,0.9-1.1,1.5l-1.4,1.3l2.7,4.2c0.2,0.3,0.3,0.5,0.4,0.7c0.1,0.2,0.1,0.3,0.1,0.5
					c0,0.4-0.1,0.7-0.3,1c-0.2,0.2-0.5,0.4-0.9,0.4c-0.3,0-0.6-0.1-0.7-0.3C474.1,779.7,473.8,779.4,473.5,779"/>
				<path fill="#FFFFFF" d="M479.2,780.2c-0.4,0-0.7-0.1-1-0.4c-0.3-0.2-0.4-0.6-0.4-1.1c0-0.4,0.1-0.7,0.4-1c0.3-0.3,0.6-0.4,1-0.4
					c0.4,0,0.7,0.1,1,0.4c0.3,0.3,0.4,0.6,0.4,1c0,0.5-0.1,0.8-0.4,1.1C479.9,780,479.5,780.2,479.2,780.2"/>
				<path fill="#FFFFFF" d="M492.1,776.9c0,0.3-0.1,0.7-0.3,1c-0.2,0.4-0.5,0.7-0.9,1c-0.4,0.3-0.9,0.6-1.5,0.8
					c-0.6,0.2-1.3,0.3-2,0.3c-1.6,0-2.9-0.5-3.8-1.4c-0.9-0.9-1.3-2.2-1.3-3.8c0-1.1,0.2-2,0.6-2.8c0.4-0.8,1-1.4,1.8-1.9
					c0.8-0.4,1.7-0.7,2.8-0.7c0.7,0,1.3,0.1,1.9,0.3c0.6,0.2,1,0.5,1.4,0.8c0.4,0.3,0.7,0.6,0.9,1c0.2,0.4,0.3,0.7,0.3,1
					c0,0.3-0.1,0.6-0.3,0.8c-0.2,0.2-0.5,0.3-0.8,0.3c-0.2,0-0.4,0-0.5-0.2c-0.1-0.1-0.3-0.3-0.5-0.5c-0.3-0.5-0.6-0.8-1-1.1
					c-0.3-0.2-0.8-0.4-1.3-0.4c-0.8,0-1.4,0.3-1.9,0.9c-0.5,0.6-0.7,1.4-0.7,2.5c0,0.5,0.1,0.9,0.2,1.3c0.1,0.4,0.3,0.8,0.5,1
					c0.2,0.3,0.5,0.5,0.8,0.7c0.3,0.2,0.7,0.2,1.1,0.2c0.5,0,1-0.1,1.3-0.4c0.4-0.2,0.7-0.6,1-1.1c0.2-0.3,0.3-0.5,0.5-0.7
					c0.2-0.2,0.4-0.2,0.7-0.2c0.3,0,0.6,0.1,0.8,0.4C492,776.4,492.1,776.7,492.1,776.9"/>
				<path fill="#FFFFFF" d="M503.3,774.9c0,0.8-0.1,1.5-0.4,2.1c-0.3,0.7-0.6,1.2-1.1,1.7c-0.5,0.5-1,0.8-1.6,1.1
					c-0.6,0.3-1.4,0.4-2.1,0.4c-0.8,0-1.5-0.1-2.1-0.4c-0.6-0.2-1.2-0.6-1.6-1.1c-0.5-0.5-0.8-1-1.1-1.7c-0.2-0.6-0.3-1.4-0.3-2.1
					c0-0.8,0.1-1.5,0.4-2.2c0.2-0.7,0.6-1.2,1-1.7c0.5-0.5,1-0.8,1.6-1.1c0.6-0.3,1.3-0.4,2.1-0.4c0.8,0,1.5,0.1,2.1,0.4
					c0.6,0.3,1.2,0.6,1.6,1.1c0.5,0.5,0.8,1,1,1.7C503.1,773.4,503.3,774.1,503.3,774.9 M500.7,774.9c0-1.1-0.2-1.9-0.7-2.5
					c-0.5-0.6-1.1-0.9-1.9-0.9c-0.5,0-1,0.1-1.3,0.4c-0.4,0.3-0.7,0.6-0.9,1.2c-0.2,0.5-0.3,1.1-0.3,1.8c0,0.7,0.1,1.3,0.3,1.8
					c0.2,0.5,0.5,0.9,0.9,1.2c0.4,0.3,0.8,0.4,1.4,0.4c0.8,0,1.4-0.3,1.9-0.9C500.4,776.7,500.7,775.9,500.7,774.9"/>
				<path fill="#FFFFFF" d="M513.1,775.1v3.4c0,0.5-0.1,1-0.4,1.2c-0.3,0.3-0.6,0.4-1,0.4c-0.4,0-0.7-0.1-1-0.4
					c-0.2-0.3-0.4-0.7-0.4-1.2v-4.1c0-0.7,0-1.2-0.1-1.5c0-0.4-0.2-0.7-0.4-0.9c-0.2-0.2-0.5-0.3-0.9-0.3c-0.8,0-1.4,0.3-1.7,0.9
					c-0.3,0.6-0.4,1.4-0.4,2.5v3.5c0,0.5-0.1,0.9-0.4,1.2c-0.2,0.3-0.6,0.4-1,0.4c-0.4,0-0.7-0.1-1-0.4c-0.3-0.3-0.4-0.7-0.4-1.2
					v-7.4c0-0.5,0.1-0.9,0.3-1.1c0.2-0.3,0.5-0.4,0.9-0.4c0.4,0,0.7,0.1,0.9,0.4c0.2,0.2,0.4,0.6,0.4,1v0.2c0.4-0.5,0.9-0.9,1.4-1.2
					c0.5-0.3,1.1-0.4,1.7-0.4c0.7,0,1.2,0.1,1.7,0.4c0.5,0.3,0.9,0.7,1.2,1.2c0.4-0.5,0.9-0.9,1.4-1.2c0.5-0.3,1-0.4,1.7-0.4
					c0.7,0,1.3,0.1,1.8,0.4c0.5,0.3,0.9,0.7,1.1,1.2c0.2,0.5,0.3,1.2,0.3,2.2v5.1c0,0.5-0.1,1-0.4,1.2c-0.3,0.3-0.6,0.4-1,0.4
					c-0.4,0-0.7-0.1-1-0.4c-0.3-0.3-0.4-0.7-0.4-1.2v-4.4c0-0.6,0-1-0.1-1.3c0-0.3-0.2-0.6-0.4-0.8c-0.2-0.2-0.5-0.3-0.9-0.3
					c-0.3,0-0.7,0.1-1,0.3c-0.3,0.2-0.5,0.5-0.7,0.8C513.2,773.2,513.1,774,513.1,775.1"/>
			</g>
			<g display="inline">
				<path fill="#FFFFFF" d="M392.4,774.2C392.4,774.2,392.4,774.2,392.4,774.2C392.4,774.2,392.4,774.2,392.4,774.2z"/>
				<path fill="#FFFFFF" d="M392.6,775.1L392.6,775.1c-0.1-0.2-0.1-0.5-0.1-0.7C392.5,774.6,392.5,774.8,392.6,775.1z"/>
				<path fill="#FFFFFF" d="M393.4,777.5C393.4,777.5,393.4,777.5,393.4,777.5C393.4,777.5,393.4,777.5,393.4,777.5z"/>
				<path fill="#FFFFFF" d="M393.3,777.3c0,0,0-0.1-0.1-0.1C393.3,777.2,393.3,777.3,393.3,777.3z"/>
				<path fill="#FFFFFF" d="M392.8,776c0.1,0.4,0.3,0.8,0.5,1.2C393.1,776.8,392.9,776.4,392.8,776L392.8,776z"/>
				<path fill="#FFFFFF" d="M402.5,764.3c0.5,0,0.9,0,1.3,0.1l0.1-0.8c0,0-1.2-0.4-2.7-0.2l-0.1-0.4c0.5-0.1,0.8-0.5,0.8-1
					c0-0.6-0.5-1-1.1-1c-0.6,0-1.1,0.5-1.1,1c0,0.5,0.4,0.9,0.8,1l0.1,0.5c-1.6,0.2-2.9,0.9-2.9,0.9l0.2,0.7c1-0.3,1.9-0.5,2.6-0.6
					C401.4,764.4,402,764.3,402.5,764.3z"/>
				<path fill="#FFFFFF" d="M393.4,768.2L393.4,768.2c0-0.1,0.1-0.1,0.1-0.2l-0.3-0.2l-0.5-0.4c0,0-0.8,0.7-1.4,2
					c0,0-0.1-0.1-0.1-0.1c-0.2-0.2-0.4-0.3-0.8-0.3h0c-0.2,0-0.3-0.1-0.4-0.1c0.1-0.1,0.1-0.3,0.1-0.4c0-0.4-0.3-0.7-0.7-0.7
					c-0.4,0-0.7,0.3-0.7,0.7c0,0.4,0.3,0.7,0.7,0.7c0.1,0,0.1,0,0.2,0c0.2,0.2,0.4,0.3,0.8,0.3c0.2,0,0.3,0.1,0.4,0.2
					c0.1,0.1,0.2,0.3,0.2,0.4v0c-0.4,1.2-0.3,2.7-0.3,2.7l1.1,0c0-0.5,0.1-1.5,0.4-2.2C392.7,769.1,393.4,768.2,393.4,768.2z"/>
				<path fill="#FFFFFF" d="M411.7,765.2c-0.4,0-0.7,0.3-0.7,0.7c0,0.1,0,0.1,0,0.2c-0.2,0.2-0.3,0.4-0.3,0.8c0,0.2,0,0.3-0.2,0.4
					c-0.1,0.1-0.2,0.1-0.3,0.1c-0.8-1.1-1.8-1.8-1.8-1.8l-0.8,0.8c0.6,0.5,1.2,1.2,1.7,2c0.4,0.6,0.8,1.3,1.1,2l1-0.5
					c0,0-0.5-1.2-1.1-2.2c0.1,0,0.2-0.1,0.3-0.2c0.2-0.2,0.3-0.4,0.3-0.8c0-0.2,0.1-0.3,0.2-0.4c0.1,0.1,0.3,0.1,0.4,0.1
					c0.4,0,0.7-0.3,0.7-0.7C412.3,765.5,412,765.2,411.7,765.2z"/>
				<path fill="#FFFFFF" d="M409,774.4c-1.4,0.7-3.7,1.6-6.8,2c-1.2,0.2-2.4,0.2-3.4,0.2c-1.4,0-2.6-0.1-3.6-0.2
					c-1.1-0.1-1.9-0.3-2.4-0.4c0.1,0.4,0.3,0.8,0.5,1.2c0,0,0,0,0,0c0,0,0,0.1,0.1,0.1c0,0,0,0.1,0.1,0.1c0,0,0,0,0,0
					c0.3,0.6,0.7,1.1,1.1,1.5c1.4,1.6,2.9,1.8,2.9,1.8l0,0l0,0c0,0,1.3,0.4,3.3,0.4c1.9,0,3.9-0.4,5.7-1.2c1.4-0.7,2.6-1.7,3.3-2.7
					c0.5-0.7,0.8-1.5,1-2.3c0.1-0.4,0.2-1.1,0.1-1.8C410.5,773.6,409.9,774,409,774.4z"/>
				<path fill="#FFFFFF" d="M393.9,768.5c0,0.1-0.7,0.9-1.1,2.3c-0.4,1-0.4,2.4-0.4,2.5l0,0c0,0.3,0,0.7,0.1,1c0,0,0,0,0,0
					c0,0,0,0.1,0,0.1c0,0.2,0.1,0.5,0.1,0.7c0.7,0.2,4.9,1.2,9.5,0.5c2.9-0.4,5.2-1.3,6.5-1.9c1.1-0.5,1.8-1,2.1-1.2
					c-0.3-1-1-2.6-1.7-3.6c-2-2.9-4.2-3.6-5.3-3.8c-0.4-0.1-0.8-0.1-1.2-0.1c-0.4,0-1,0-1.7,0.1c-0.7,0.1-1.6,0.3-2.5,0.6
					c-1.3,0.4-2.6,1.2-3.5,2l0,0C394.5,767.8,394.2,768.1,393.9,768.5z M406.1,767.8c1,0,1.8,0.8,1.8,1.7c0,1-0.8,1.7-1.8,1.7
					c-1,0-1.7-0.8-1.7-1.7C404.4,768.6,405.2,767.8,406.1,767.8z M397.9,767.8c1.6,0,2.8,1.3,2.8,2.8c0,1.6-1.3,2.8-2.8,2.8
					s-2.8-1.3-2.8-2.8C395.1,769,396.3,767.8,397.9,767.8z"/>
			</g>
		</g>
	</g>
</g>
</svg>
